# xmcd CD database file
#
# Track frame offsets:
#	150
#	12850
#	26712
#	45277
#	57152
#	70495
#	84797
#	98140
#	111793
#	124266
#	138563
#	151685
#	165861
#	179644
#	193228
#	207340
#	221708
#	237487
#	251877
#	271077
#	284954
#
# Disc length: 3990 seconds
#
# Revision: 0
# Processed by: cddbd v1.5.2PL0 Copyright (c) Steve Scherf et al.
# Submitted via: CDex 1.70beta2
#
DISCID=350f9415
DTITLE=Jazz portrék - CD-2
DYEAR=1900
DGENRE=Jazz
TTITLE0=Jelly Roll Morton: King Porter Stomp
TTITLE1=King Oliver: Snake Rag
TTITLE2=Sidney Bechet: Summertime
TTITLE3=King Oliver: Dippermouth Blues
TTITLE4=Louis Armstrong: Heebie Jeebies
TTITLE5=Bessie Smith: St Louis Blues
TTITLE6=Bix Beiderbecke: Singin' the Blues
TTITLE7=Fletcher Henderson: Christopher Columbus
TTITLE8=Fats Walter: Handful of Keys
TTITLE9=Duke Ellington: Cotton Tail
TTITLE10=Duke Ellington: Take the A Train
TTITLE11=Benny Goodman: King Porter Stomp
TTITLE12=Count Basie: Jumpin' at the Woodside
TTITLE13=Coleman Hawkings: Body and Soul
TTITLE14=Lester Young: Oh Lady Be Good
TTITLE15=Billie Holyday: God Bless the Child
TTITLE16=Art Tatum: Would You Like to Take a Walk
TTITLE17=Django Reinhardt: Daphne
TTITLE18=Charlie Parker: Ko-ko
TTITLE19=Dizzy Gillespie: Manteca
TTITLE20=Thelonius Monk: 'Round Midnight
EXTD=
EXTT0=
EXTT1=
EXTT2=
EXTT3=
EXTT4=
EXTT5=
EXTT6=
EXTT7=
EXTT8=
EXTT9=
EXTT10=
EXTT11=
EXTT12=
EXTT13=
EXTT14=
EXTT15=
EXTT16=
EXTT17=
EXTT18=
EXTT19=
EXTT20=
PLAYORDER=
